<svg width="22" height="21" viewBox="0 0 22 21" fill="none" xmlns="http://www.w3.org/2000/svg">
<path d="M16.833 16.5C17.4076 16.5 17.9587 16.7283 18.3651 17.1346C18.7714 17.5409 18.9997 18.092 18.9997 18.6667C18.9997 19.2413 18.7714 19.7924 18.3651 20.1987C17.9587 20.6051 17.4076 20.8333 16.833 20.8333C16.2584 20.8333 15.7073 20.6051 15.3009 20.1987C14.8946 19.7924 14.6663 19.2413 14.6663 18.6667C14.6663 18.092 14.8946 17.5409 15.3009 17.1346C15.7073 16.7283 16.2584 16.5 16.833 16.5ZM16.833 17.5833C16.5457 17.5833 16.2701 17.6975 16.067 17.9006C15.8638 18.1038 15.7497 18.3794 15.7497 18.6667C15.7497 18.954 15.8638 19.2295 16.067 19.4327C16.2701 19.6359 16.5457 19.75 16.833 19.75C17.1203 19.75 17.3959 19.6359 17.599 19.4327C17.8022 19.2295 17.9163 18.954 17.9163 18.6667C17.9163 18.3794 17.8022 18.1038 17.599 17.9006C17.3959 17.6975 17.1203 17.5833 16.833 17.5833ZM7.08301 16.5C7.65764 16.5 8.20874 16.7283 8.61507 17.1346C9.0214 17.5409 9.24967 18.092 9.24967 18.6667C9.24967 19.2413 9.0214 19.7924 8.61507 20.1987C8.20874 20.6051 7.65764 20.8333 7.08301 20.8333C6.50837 20.8333 5.95727 20.6051 5.55094 20.1987C5.14461 19.7924 4.91634 19.2413 4.91634 18.6667C4.91634 18.092 5.14461 17.5409 5.55094 17.1346C5.95727 16.7283 6.50837 16.5 7.08301 16.5ZM7.08301 17.5833C6.79569 17.5833 6.52014 17.6975 6.31698 17.9006C6.11381 18.1038 5.99967 18.3794 5.99967 18.6667C5.99967 18.954 6.11381 19.2295 6.31698 19.4327C6.52014 19.6359 6.79569 19.75 7.08301 19.75C7.37033 19.75 7.64588 19.6359 7.84904 19.4327C8.0522 19.2295 8.16634 18.954 8.16634 18.6667C8.16634 18.3794 8.0522 18.1038 7.84904 17.9006C7.64588 17.6975 7.37033 17.5833 7.08301 17.5833ZM18.9997 3.5H4.12551L6.88801 10H15.7497C16.1072 10 16.4213 9.82667 16.6163 9.56667L19.8663 5.23333C20.0072 5.04917 20.083 4.82167 20.083 4.58333C20.083 4.29602 19.9689 4.02047 19.7657 3.8173C19.5625 3.61414 19.287 3.5 18.9997 3.5ZM15.7497 11.0833H6.94217L6.10801 12.7733L5.99967 13.25C5.99967 13.5373 6.11381 13.8129 6.31698 14.016C6.52014 14.2192 6.79569 14.3333 7.08301 14.3333H18.9997V15.4167H7.08301C6.50837 15.4167 5.95727 15.1884 5.55094 14.7821C5.14461 14.3757 4.91634 13.8246 4.91634 13.25C4.91602 12.8824 5.00922 12.5208 5.18717 12.1992L5.96717 10.6067L2.03467 1.33333H0.583008V0.25H2.74967L3.67051 2.41667H18.9997C19.5743 2.41667 20.1254 2.64494 20.5317 3.05127C20.9381 3.4576 21.1663 4.0087 21.1663 4.58333C21.1663 5.125 20.9822 5.58 20.6788 5.94833L17.5263 10.1625C17.1363 10.715 16.4863 11.0833 15.7497 11.0833Z" fill="black"/>
</svg>
