<svg width="25" height="25" viewBox="0 0 25 25" fill="none" xmlns="http://www.w3.org/2000/svg">
<path d="M12.1302 21.7819L12.1234 21.7783L12.0998 21.7655C12.0797 21.7546 12.0509 21.7388 12.0141 21.7183C11.9405 21.6772 11.8346 21.6171 11.701 21.5385C11.4339 21.3813 11.0554 21.1499 10.6027 20.8489C9.69869 20.248 8.49085 19.3647 7.27979 18.2357C4.88314 16.0016 2.34375 12.6824 2.34375 8.59375C2.34375 5.54369 4.91 3.125 8.00781 3.125C9.82956 3.125 11.4608 3.95738 12.5 5.26208C13.5393 3.95738 15.1704 3.125 16.9922 3.125C20.09 3.125 22.6562 5.54369 22.6562 8.59375C22.6562 12.6824 20.1169 16.0016 17.7202 18.2357C16.5091 19.3647 15.3013 20.248 14.3973 20.8489C13.9446 21.1499 13.5661 21.3813 13.299 21.5385C13.1654 21.6171 13.0595 21.6772 12.9859 21.7183C12.9491 21.7388 12.9203 21.7546 12.9002 21.7655L12.8766 21.7783L12.8698 21.7819L12.8669 21.7835C12.6378 21.9051 12.3622 21.9051 12.1331 21.7835L12.1302 21.7819Z" fill="black"/>
<path d="M11 14.3416C11.0179 12.493 12.522 11 14.3748 11C15.4351 11 16.3811 11.4889 16.9998 12.2535C17.6186 11.4889 18.5646 11 19.6248 11C21.4888 11 22.9998 12.511 22.9998 14.375C22.9998 14.4215 22.9989 14.4679 22.997 14.5141C22.9333 16.6475 21.3783 18.2732 20.0415 19.298C19.3522 19.8264 18.6703 20.234 18.1627 20.5091C17.9081 20.6471 17.6951 20.7529 17.5441 20.825C17.4686 20.861 17.4084 20.8887 17.3661 20.9078C17.345 20.9173 17.3283 20.9247 17.3164 20.93L17.3021 20.9362L17.2977 20.9381L17.2963 20.9387C17.11 21.02 16.89 21.02 16.704 20.939L16.702 20.9381L16.6975 20.9362L16.683 20.9298C16.6709 20.9245 16.6539 20.9169 16.6323 20.9072C16.5892 20.8878 16.5279 20.8596 16.451 20.8228C16.2972 20.7494 16.0804 20.6415 15.8214 20.5008C15.3052 20.2203 14.6126 19.8047 13.9157 19.2659C12.5637 18.2205 10.9991 16.5583 10.999 14.38C10.999 14.3672 10.9994 14.3544 11 14.3416Z" fill="white"/>
</svg>
