<svg width="290" height="279" viewBox="0 0 290 279" fill="none" xmlns="http://www.w3.org/2000/svg">
<path d="M187.4 196.941C189.801 197.987 195.658 197.853 195.664 197.853C195.671 197.853 194.403 194.016 194.289 193.781C193.008 191.098 188.923 186.65 185.636 187.073C185.088 187.162 184.566 187.366 184.102 187.67C183.638 187.975 183.244 188.374 182.945 188.841C182.646 189.308 182.448 189.832 182.365 190.381C182.282 190.929 182.315 191.489 182.463 192.024C183.013 194.345 185.361 196.049 187.4 196.941Z" fill="#263238"/>
<path d="M189.426 213.913C191.908 214.275 197.14 212.759 197.556 212.638C198.418 215.63 199.478 218.561 200.729 221.412C201.447 223.076 202.225 224.733 203.023 226.383C202.547 225.712 202.111 225.041 202.044 224.981C200.092 222.727 195.001 219.514 191.928 220.822C191.424 221.053 190.973 221.387 190.607 221.804C190.24 222.22 189.965 222.709 189.8 223.239C189.635 223.768 189.583 224.327 189.648 224.878C189.713 225.429 189.893 225.96 190.177 226.437C191.311 228.503 194.028 229.522 196.215 229.844C198.402 230.166 202.923 228.966 204.117 228.63C204.425 229.261 204.734 229.891 205.049 230.522C206.565 233.534 208.088 236.559 209.49 239.531C209.987 240.584 210.436 241.637 210.892 242.691C210.47 242.073 210.107 241.557 210.04 241.483C208.088 239.229 202.997 236.016 199.924 237.324C199.42 237.554 198.97 237.888 198.603 238.304C198.237 238.72 197.962 239.208 197.796 239.737C197.631 240.266 197.579 240.824 197.644 241.375C197.709 241.925 197.89 242.456 198.173 242.932C199.307 244.998 202.024 246.025 204.211 246.34C206.398 246.655 210.49 245.582 211.898 245.186C212.328 246.286 212.764 247.38 213.133 248.46C213.367 249.204 213.649 249.902 213.844 250.66C214.038 251.418 214.26 252.149 214.461 252.88C214.803 254.309 215.165 255.778 215.467 257.174C215.682 258.146 215.87 259.079 216.057 260.018C215.581 258.965 214.595 256.919 214.488 256.758C212.905 254.229 208.356 250.284 205.096 251.109C204.562 251.261 204.066 251.523 203.64 251.879C203.215 252.235 202.869 252.677 202.625 253.176C202.381 253.675 202.246 254.219 202.226 254.774C202.207 255.328 202.305 255.881 202.514 256.395C203.325 258.609 205.868 260.031 207.981 260.682C210.329 261.393 215.514 260.742 216.165 260.682C216.473 262.231 216.762 263.748 217.01 265.176C217.144 265.934 217.265 266.645 217.379 267.357H219.445C219.291 266.538 219.13 265.693 218.955 264.814C218.647 263.238 218.285 261.561 217.895 259.837C219.46 259.212 220.985 258.496 222.464 257.69C224.174 259.542 228.548 261.715 229.118 261.983C228.521 263.446 227.924 264.868 227.347 266.196C227.173 266.599 226.998 266.974 226.831 267.357H229.004L229.165 266.967C229.782 265.485 230.4 263.882 231.03 262.231C231.654 262.366 236.792 263.412 239.187 262.869C241.361 262.379 243.99 261.151 244.963 259.005C245.209 258.508 245.347 257.964 245.369 257.41C245.391 256.856 245.296 256.303 245.091 255.788C244.885 255.273 244.573 254.807 244.176 254.421C243.778 254.034 243.303 253.736 242.783 253.544C239.617 252.478 234.787 256.073 233.016 258.475C232.915 258.616 231.949 260.273 231.365 261.333C231.614 260.662 231.869 259.991 232.117 259.32C232.62 257.979 233.083 256.556 233.593 255.067C233.807 254.336 234.029 253.598 234.263 252.853C234.498 252.109 234.659 251.317 234.86 250.546C235.29 248.735 235.639 246.883 235.947 245.012C237.155 245.448 241.461 246.95 243.688 246.789C245.916 246.628 248.699 245.817 249.987 243.844C250.304 243.389 250.522 242.872 250.626 242.327C250.73 241.782 250.719 241.221 250.592 240.681C250.466 240.141 250.227 239.633 249.892 239.192C249.556 238.75 249.132 238.383 248.646 238.116C245.674 236.586 240.354 239.404 238.241 241.51C238.114 241.637 236.766 243.321 236.041 244.254C236.222 243.127 236.403 242.006 236.544 240.859C236.953 237.545 237.269 234.185 237.597 230.831C237.698 229.804 237.805 228.778 237.913 227.758C238.342 227.919 243.427 229.811 245.922 229.636C248.143 229.476 250.933 228.664 252.214 226.685C252.532 226.23 252.751 225.713 252.856 225.168C252.96 224.623 252.949 224.061 252.823 223.521C252.696 222.98 252.457 222.473 252.121 222.031C251.785 221.589 251.36 221.223 250.873 220.956C247.908 219.427 242.588 222.251 240.475 224.35C240.314 224.511 238.382 226.933 237.919 227.57C238.161 225.316 238.416 223.069 238.765 220.862C239.213 217.883 239.856 214.936 240.69 212.041C240.884 212.121 246.177 214.114 248.74 213.939C250.96 213.778 253.744 212.967 255.032 210.988C255.35 210.533 255.568 210.016 255.673 209.471C255.778 208.925 255.767 208.364 255.64 207.824C255.513 207.283 255.274 206.776 254.938 206.334C254.603 205.892 254.177 205.526 253.69 205.259C250.725 203.73 245.406 206.554 243.293 208.653C243.125 208.821 241.045 211.424 240.703 211.927C240.75 211.759 240.784 211.578 240.837 211.41C241.753 208.531 242.922 205.738 244.332 203.065C245.09 201.583 245.895 200.208 246.714 198.88C247.666 199.356 252.02 201.469 254.341 201.563C256.662 201.657 259.426 201.147 260.922 199.329C261.289 198.913 261.564 198.425 261.73 197.896C261.897 197.367 261.95 196.809 261.887 196.258C261.823 195.707 261.645 195.176 261.363 194.698C261.081 194.221 260.702 193.808 260.251 193.486C257.467 191.641 251.872 193.862 249.518 195.72C249.39 195.821 248.216 196.988 247.378 197.853C247.754 197.263 248.129 196.646 248.505 196.082C249.9 193.983 251.309 192.145 252.57 190.521C253.294 189.609 253.965 188.797 254.582 188.039C255.756 188.039 260.479 187.878 262.545 186.905C264.611 185.933 266.865 184.222 267.355 181.888C267.487 181.349 267.504 180.789 267.406 180.243C267.307 179.698 267.095 179.179 266.784 178.72C266.472 178.262 266.067 177.874 265.596 177.581C265.125 177.289 264.597 177.1 264.048 177.024C260.734 176.669 256.789 181.217 255.575 183.94C255.468 184.175 254.234 188.046 254.314 188.046H254.388C253.757 188.757 253.093 189.528 252.375 190.387C251.074 191.984 249.625 193.795 248.176 195.874C246.593 198.101 245.14 200.417 243.823 202.811C242.338 205.485 241.094 208.287 240.106 211.182C240.106 211.216 240.106 211.256 240.106 211.29C240.106 210.31 240.106 207.573 240.053 207.365C239.67 204.407 237.195 198.92 233.908 198.316C233.36 198.231 232.8 198.262 232.265 198.407C231.73 198.552 231.231 198.808 230.802 199.159C230.372 199.509 230.021 199.946 229.772 200.441C229.522 200.936 229.379 201.479 229.353 202.032C229.165 204.38 230.862 206.728 232.526 208.217C234.398 209.888 239.596 211.504 240.012 211.632C239.08 214.603 238.345 217.633 237.812 220.701C237.497 222.492 237.228 224.297 236.987 226.115C236.987 225.269 236.987 224.511 236.947 224.411C236.558 221.453 234.082 215.965 230.802 215.355C230.254 215.268 229.693 215.299 229.157 215.443C228.621 215.588 228.122 215.844 227.692 216.195C227.261 216.545 226.91 216.983 226.659 217.478C226.409 217.974 226.267 218.517 226.24 219.071C226.053 221.419 227.757 223.767 229.413 225.256C231.07 226.745 235.504 228.234 236.672 228.61C236.591 229.281 236.497 230.005 236.41 230.703C236.008 234.057 235.625 237.411 235.149 240.671C234.981 241.819 234.773 242.952 234.565 244.079C234.565 243.328 234.565 242.697 234.525 242.597C234.143 239.645 231.667 234.158 228.387 233.547C227.839 233.461 227.278 233.491 226.742 233.636C226.206 233.781 225.707 234.037 225.277 234.387C224.846 234.738 224.495 235.175 224.245 235.671C223.995 236.166 223.852 236.709 223.826 237.264C223.638 239.612 225.335 241.959 226.998 243.449C228.662 244.938 232.66 246.279 234.049 246.729C233.807 247.876 233.566 249.03 233.277 250.137C233.063 250.888 232.908 251.619 232.653 252.364C232.399 253.108 232.177 253.833 231.942 254.557C231.439 255.939 230.929 257.361 230.406 258.696C230.051 259.622 229.695 260.501 229.34 261.38C229.521 260.239 229.823 257.985 229.829 257.797C229.794 255.175 229.085 252.607 227.77 250.338C227.782 250.044 227.764 249.749 227.716 249.459C227.648 248.908 227.465 248.378 227.178 247.903C226.891 247.428 226.507 247.019 226.051 246.702C225.596 246.385 225.078 246.169 224.533 246.066C223.987 245.963 223.426 245.976 222.886 246.105C219.66 246.964 217.614 252.625 217.459 255.604C217.459 255.778 217.567 257.697 217.661 258.904C217.5 258.2 217.345 257.516 217.171 256.798C216.836 255.369 216.453 253.954 216.051 252.431C215.829 251.706 215.608 250.968 215.38 250.224C215.152 249.479 214.857 248.728 214.595 247.97C213.958 246.226 213.253 244.488 212.455 242.751C213.703 242.456 218.124 241.329 219.895 239.967C221.665 238.605 223.537 236.392 223.517 234.037C223.53 233.484 223.427 232.935 223.214 232.424C223.001 231.914 222.683 231.454 222.28 231.074C221.878 230.695 221.4 230.404 220.878 230.221C220.356 230.038 219.802 229.967 219.251 230.012C215.93 230.374 213.052 235.66 212.448 238.578C212.415 238.76 212.214 240.906 212.126 242.087C211.657 241.047 211.187 240.007 210.671 238.974C209.188 235.982 207.598 233.011 206.015 230.032C205.532 229.12 205.063 228.201 204.586 227.289C205.036 227.188 210.315 225.947 212.301 224.438C214.072 223.096 215.943 220.862 215.923 218.508C215.936 217.955 215.833 217.405 215.62 216.895C215.407 216.384 215.089 215.924 214.687 215.545C214.284 215.165 213.807 214.875 213.285 214.692C212.763 214.509 212.208 214.437 211.657 214.483C208.343 214.845 205.459 220.131 204.855 223.049C204.815 223.27 204.533 226.356 204.499 227.141C203.453 225.129 202.433 223.116 201.507 221.104C200.236 218.373 199.147 215.56 198.247 212.685C198.455 212.638 203.969 211.384 206.009 209.827C207.773 208.486 209.651 206.252 209.631 203.897C209.643 203.345 209.539 202.796 209.326 202.286C209.112 201.776 208.794 201.316 208.392 200.937C207.99 200.557 207.513 200.267 206.991 200.083C206.47 199.9 205.916 199.828 205.365 199.872C202.044 200.228 199.166 205.521 198.563 208.439C198.516 208.667 198.22 211.987 198.207 212.591C198.153 212.423 198.086 212.256 198.033 212.088C197.209 209.183 196.643 206.211 196.342 203.206C196.161 201.549 196.074 199.953 196.027 198.397C197.08 198.269 201.876 197.632 203.862 196.424C205.848 195.217 207.887 193.278 208.115 190.93C208.192 190.381 208.151 189.821 207.997 189.289C207.843 188.756 207.578 188.261 207.22 187.838C206.861 187.414 206.418 187.071 205.918 186.831C205.418 186.59 204.873 186.458 204.318 186.443C200.964 186.443 197.536 191.373 196.617 194.211C196.57 194.365 196.235 195.988 196.007 197.176C196.007 196.471 195.973 195.747 195.973 195.076C195.973 192.554 196.141 190.239 196.295 188.193C196.396 187.033 196.51 185.98 196.624 185C197.59 184.33 201.454 181.646 202.661 179.667C203.869 177.688 204.768 175.019 203.902 172.825C203.716 172.302 203.422 171.825 203.04 171.423C202.657 171.022 202.194 170.705 201.68 170.494C201.167 170.284 200.615 170.183 200.061 170.2C199.506 170.217 198.962 170.35 198.462 170.591C195.497 172.127 194.719 178.098 195.208 181.036C195.249 181.291 196.369 185.188 196.423 185.155L196.476 185.114C196.349 186.054 196.221 187.066 196.101 188.173C195.899 190.219 195.685 192.534 195.631 195.069C195.536 197.799 195.601 200.531 195.826 203.253C196.06 206.305 196.567 209.329 197.342 212.289C197.351 212.326 197.362 212.361 197.375 212.397C196.845 211.571 195.302 209.311 195.162 209.15C193.216 206.896 188.118 203.689 185.046 204.991C184.541 205.222 184.091 205.556 183.724 205.972C183.357 206.389 183.083 206.878 182.917 207.407C182.752 207.937 182.7 208.496 182.765 209.047C182.831 209.598 183.011 210.129 183.295 210.605C184.509 212.571 187.226 213.591 189.426 213.913Z" fill="#263238"/>
<path d="M246.674 198.215C246.727 198.249 247.74 194.318 247.774 194.063C248.19 191.111 247.244 185.161 244.239 183.712C243.733 183.487 243.186 183.37 242.632 183.369C242.079 183.369 241.531 183.484 241.025 183.709C240.52 183.933 240.066 184.262 239.695 184.672C239.324 185.083 239.044 185.568 238.872 186.094C238.067 188.307 239.087 191.024 240.294 192.896C241.71 195.103 246.674 198.215 246.674 198.215Z" fill="#263238"/>
<path d="M103.574 153.042H14.6777V37.8896H103.574V153.042ZM15.3486 152.371H102.904V38.5605H15.3486V152.371Z" fill="#263238"/>
<path d="M101.066 149.795H17.1602V41.123H101.066V149.795ZM17.8846 149.125H100.395V41.7939H17.831L17.8846 149.125Z" fill="#263238"/>
<path d="M80.2163 122.721H38.042V68.2168H80.2163V122.721ZM38.7262 122.05H79.5454V68.8876H38.7128L38.7262 122.05Z" fill="#263238"/>
<path d="M199.475 104.3L184.992 102.254L187.004 87.8716L201.494 89.884L199.475 104.3ZM185.75 101.684L198.904 103.542L200.749 90.4877L187.588 88.6296L185.75 101.684ZM201.782 82.7398L188.534 80.8682L190.452 67.2775L190.58 67.197C194.089 65.0458 197.426 62.6258 200.561 59.9589C203.494 57.4872 206.046 54.5961 208.135 51.3791C210.11 48.3127 211.396 44.8546 211.905 41.2431C212.301 38.4458 211.979 36.1583 210.946 34.4276C209.913 32.6969 208.209 31.6973 205.854 31.3619C204.956 31.1848 204.032 31.1872 203.135 31.3691C202.238 31.5511 201.386 31.9088 200.628 32.4218C199.92 32.97 199.334 33.659 198.905 34.4453C198.477 35.2315 198.216 36.098 198.14 36.9901C198.008 37.8649 197.985 38.7527 198.073 39.6331C198.16 40.4985 198.274 41.4309 198.415 42.4036L198.462 42.7591L184.623 43.7855L184.569 43.497C184.282 42.0866 184.11 40.6554 184.053 39.2172C184.001 37.8183 184.072 36.4175 184.267 35.0313C185.092 29.1885 187.581 24.7141 191.646 21.729C195.711 18.7439 201.172 17.7041 207.833 18.6567C214.635 19.6159 219.72 22.2455 222.96 26.465C226.2 30.6844 227.36 36.279 226.401 43.0811C225.847 47.3008 224.461 51.3685 222.323 55.0485C220.162 58.658 217.429 61.893 214.233 64.6278C210.8 67.5696 207.112 70.1985 203.211 72.483L201.782 82.7398ZM189.292 80.298L201.212 81.9818L202.614 72.0403L202.755 71.9598C206.67 69.6764 210.37 67.0427 213.81 64.0911C216.951 61.3962 219.635 58.2112 221.759 54.6594C223.864 51.0632 225.232 47.084 225.784 42.9537C226.716 36.3394 225.603 30.9192 222.477 26.8541C219.351 22.7889 214.427 20.2398 207.786 19.3007C201.306 18.3883 196.02 19.3812 192.089 22.2523C188.158 25.1233 185.73 29.4367 184.931 35.0917C184.742 36.4379 184.672 37.7983 184.723 39.1568C184.775 40.4607 184.923 41.7589 185.166 43.0409L197.697 42.1084C197.583 41.2565 197.482 40.4381 197.402 39.6667C197.31 38.7325 197.335 37.7907 197.476 36.8626C197.564 35.8821 197.854 34.9305 198.329 34.068C198.803 33.2055 199.452 32.4508 200.233 31.8516C201.059 31.2848 201.99 30.8879 202.971 30.6841C203.952 30.4803 204.964 30.4735 205.948 30.6643C208.517 31.0265 210.389 32.1669 211.516 34.0184C212.643 35.8698 212.985 38.3183 212.569 41.2699C212.052 44.9868 210.731 48.5464 208.698 51.7011C206.574 54.9709 203.979 57.9094 200.997 60.4217C197.875 63.0744 194.556 65.4873 191.069 67.6397L189.292 80.298Z" fill="#263238"/>
<path d="M115.038 137.169C115.038 137.169 71.9787 137.739 70.637 140.805C69.2954 143.871 63.1708 181 62.7885 193.799C62.4061 206.599 62.2183 215.044 63.5532 216.574C64.8881 218.103 85.7572 230.164 85.7572 230.164C85.7572 230.164 75.9969 264.423 79.0491 265.577C82.1013 266.731 100.871 271.507 112.925 271.701C124.98 271.896 136.853 271.889 137.813 271.889C138.772 271.889 169.583 273.036 180.302 270.548C191.022 268.059 194.269 267.864 194.269 263.658C194.269 259.452 191.585 254.267 191.398 253.328C191.21 252.389 198.676 179.826 194.463 162.03C190.25 144.233 184.703 137.337 180.49 136.19C176.277 135.043 146.231 135.807 146.231 135.807L115.038 137.169Z" fill="#FFC100"/>
<path d="M154.336 272.527C149.64 272.527 144.401 272.453 138.753 272.292H137.82C135.674 272.292 124.404 272.292 112.933 272.104C100.677 271.91 81.921 267.073 78.9426 265.953C78.2718 265.712 76.749 265.135 80.955 247.432C82.7931 239.637 84.9799 231.876 85.3824 230.393C83.001 229.018 64.6207 218.352 63.326 216.863C61.9106 215.246 62.0715 207.471 62.474 193.86C62.8631 180.893 69.0883 143.609 70.3494 140.718C71.6911 137.612 107.815 136.975 115.053 136.881L146.246 135.54C147.48 135.506 176.432 134.788 180.605 135.935C183.194 136.606 189.748 140.591 194.82 162.017C198.288 176.681 193.927 227.582 192.284 246.741C191.969 250.424 191.74 253.087 191.761 253.348C191.911 253.815 192.086 254.274 192.284 254.724C193.102 256.736 194.632 260.519 194.632 263.726C194.632 267.751 191.901 268.341 183.785 270.172L180.43 270.944C175.802 272.004 166.753 272.527 154.336 272.527ZM165.304 135.935C156.187 135.935 146.42 136.177 146.246 136.184L115.053 137.525C98.4835 137.747 71.8655 138.867 70.9532 140.96C69.6987 143.824 63.5205 180.934 63.1314 193.854C62.796 205.143 62.5009 214.897 63.8023 216.4C64.8688 217.621 80.1299 226.569 85.9392 229.917C86.0038 229.954 86.0541 230.012 86.0821 230.081C86.11 230.151 86.114 230.227 86.0935 230.299C81.324 246.996 77.44 264.625 79.1774 265.296C82.1357 266.402 100.764 271.206 112.94 271.4C124.417 271.581 135.674 271.588 137.82 271.588H138.773C159.239 272.165 173.964 271.689 180.229 270.246C181.457 269.958 182.584 269.71 183.617 269.475C191.546 267.684 193.941 267.14 193.941 263.679C193.941 260.607 192.445 256.91 191.64 254.925C191.421 254.432 191.233 253.925 191.076 253.409C191.043 253.214 191.137 252.034 191.6 246.633C193.236 227.502 197.59 176.687 194.142 162.111C189.158 141.034 182.879 137.196 180.41 136.519C178.646 136.076 172.159 135.935 165.304 135.935Z" fill="#263238"/>
<path d="M133.5 155.175C133.434 155.176 133.37 155.157 133.315 155.121C133.26 155.085 133.217 155.034 133.191 154.973C133.174 154.933 133.164 154.889 133.163 154.845C133.162 154.801 133.17 154.757 133.186 154.716C133.203 154.674 133.227 154.637 133.258 154.605C133.288 154.573 133.325 154.548 133.366 154.531C134.891 153.879 136.374 153.133 137.807 152.297C137.845 152.275 137.887 152.26 137.931 152.255C137.975 152.249 138.019 152.252 138.062 152.264C138.105 152.275 138.145 152.295 138.18 152.322C138.215 152.349 138.244 152.382 138.266 152.421C138.288 152.459 138.302 152.501 138.308 152.545C138.314 152.589 138.311 152.634 138.299 152.676C138.288 152.719 138.268 152.759 138.241 152.794C138.214 152.829 138.18 152.858 138.142 152.88C136.686 153.729 135.178 154.486 133.627 155.148C133.587 155.166 133.544 155.175 133.5 155.175Z" fill="#263238"/>
<path d="M140 151.672C139.944 151.672 139.89 151.658 139.841 151.632C139.792 151.607 139.75 151.57 139.718 151.525C139.67 151.45 139.654 151.359 139.673 151.272C139.692 151.186 139.744 151.11 139.819 151.062C145.151 147.51 149.832 143.067 153.658 137.927C153.683 137.891 153.715 137.86 153.753 137.836C153.79 137.813 153.832 137.796 153.876 137.789C153.919 137.782 153.964 137.783 154.007 137.793C154.05 137.803 154.091 137.821 154.127 137.847C154.163 137.871 154.194 137.903 154.218 137.94C154.241 137.977 154.257 138.018 154.265 138.061C154.272 138.104 154.271 138.148 154.261 138.191C154.251 138.234 154.233 138.274 154.208 138.309C150.331 143.516 145.589 148.018 140.188 151.618C140.132 151.655 140.066 151.674 140 151.672Z" fill="#263238"/>
<path d="M143.944 153.551C143.884 153.55 143.825 153.534 143.773 153.503C143.721 153.473 143.678 153.429 143.649 153.377C143.628 153.338 143.614 153.295 143.609 153.251C143.605 153.207 143.609 153.163 143.621 153.121C143.634 153.078 143.654 153.039 143.682 153.004C143.71 152.97 143.744 152.941 143.783 152.92C147.137 151.123 151.061 145.642 151.102 145.588C151.125 145.548 151.157 145.514 151.195 145.487C151.233 145.46 151.276 145.441 151.321 145.431C151.367 145.421 151.414 145.421 151.459 145.431C151.505 145.441 151.548 145.459 151.585 145.487C151.623 145.514 151.655 145.548 151.679 145.588C151.702 145.628 151.718 145.673 151.723 145.719C151.729 145.765 151.725 145.812 151.711 145.856C151.698 145.901 151.675 145.942 151.645 145.977C151.484 146.205 147.62 151.639 144.098 153.511C144.051 153.537 143.998 153.551 143.944 153.551Z" fill="#263238"/>
<path d="M124.014 207.444C123.944 207.443 123.875 207.42 123.819 207.378C123.762 207.336 123.72 207.277 123.699 207.209L122.572 203.708C122.557 203.666 122.551 203.622 122.554 203.577C122.557 203.533 122.569 203.49 122.589 203.451C122.609 203.411 122.637 203.376 122.671 203.348C122.705 203.319 122.744 203.298 122.787 203.285C122.871 203.258 122.963 203.265 123.042 203.305C123.122 203.345 123.182 203.415 123.209 203.5L124.336 207.001C124.364 207.086 124.357 207.178 124.316 207.257C124.276 207.336 124.206 207.396 124.122 207.424C124.087 207.437 124.051 207.444 124.014 207.444Z" fill="#263238"/>
<path d="M130.159 226.523C130.088 226.523 130.019 226.5 129.962 226.458C129.905 226.415 129.864 226.356 129.844 226.288L124.853 210.799C124.825 210.71 124.834 210.614 124.877 210.531C124.921 210.449 124.995 210.387 125.084 210.359C125.173 210.332 125.269 210.341 125.352 210.384C125.434 210.428 125.496 210.502 125.523 210.591L130.514 226.087C130.54 226.171 130.532 226.263 130.492 226.341C130.452 226.42 130.383 226.48 130.3 226.509L130.159 226.523Z" fill="#263238"/>
<path d="M131.695 226.905C131.63 226.908 131.567 226.889 131.514 226.852C131.476 226.828 131.444 226.798 131.418 226.762C131.392 226.726 131.374 226.685 131.364 226.642C131.354 226.599 131.353 226.555 131.36 226.511C131.367 226.468 131.383 226.426 131.407 226.389L136.384 218.547C136.407 218.509 136.437 218.475 136.473 218.449C136.508 218.423 136.549 218.404 136.593 218.394C136.636 218.384 136.681 218.383 136.724 218.391C136.768 218.399 136.81 218.415 136.847 218.439C136.921 218.488 136.974 218.563 136.994 218.649C137.014 218.736 137 218.826 136.954 218.902L131.977 226.751C131.946 226.798 131.904 226.836 131.855 226.863C131.806 226.89 131.751 226.904 131.695 226.905Z" fill="#263238"/>
<path d="M142.985 222.31C142.919 222.312 142.855 222.295 142.799 222.26C142.744 222.226 142.7 222.175 142.673 222.115C142.646 222.055 142.638 221.989 142.65 221.924C142.661 221.86 142.691 221.8 142.737 221.753L154.811 208.162C154.871 208.096 154.955 208.055 155.044 208.05C155.133 208.045 155.221 208.076 155.288 208.136C155.354 208.195 155.395 208.279 155.4 208.368C155.405 208.457 155.374 208.545 155.315 208.612L143.24 222.203C143.208 222.238 143.168 222.266 143.124 222.284C143.08 222.303 143.033 222.312 142.985 222.31Z" fill="#263238"/>
<path d="M137.82 272.265H137.726L111.745 264.691C111.703 264.679 111.664 264.658 111.629 264.631C111.595 264.603 111.566 264.569 111.545 264.531C111.524 264.492 111.511 264.45 111.506 264.406C111.501 264.362 111.505 264.318 111.517 264.275C111.529 264.233 111.549 264.193 111.576 264.158C111.604 264.123 111.638 264.094 111.677 264.073C111.716 264.051 111.758 264.038 111.802 264.034C111.846 264.029 111.891 264.034 111.933 264.047L137.907 271.607C137.996 271.62 138.077 271.667 138.131 271.739C138.185 271.811 138.208 271.901 138.196 271.99C138.183 272.079 138.136 272.159 138.064 272.213C137.993 272.267 137.902 272.291 137.813 272.278L137.82 272.265Z" fill="#263238"/>
<path d="M108.78 263.806H108.686L104.232 262.505C104.143 262.48 104.068 262.421 104.022 262.34C103.977 262.26 103.966 262.165 103.99 262.076C104.015 261.987 104.075 261.911 104.155 261.866C104.236 261.821 104.331 261.809 104.42 261.834L108.874 263.136C108.916 263.148 108.956 263.168 108.99 263.196C109.024 263.224 109.053 263.258 109.074 263.296C109.095 263.335 109.109 263.377 109.113 263.421C109.118 263.465 109.114 263.509 109.102 263.551C109.084 263.624 109.043 263.688 108.985 263.734C108.926 263.78 108.854 263.806 108.78 263.806Z" fill="#263238"/>
<path d="M114.77 52.0634C114.77 52.0634 101.254 48.9576 98.6709 52.4324C96.0882 55.9072 101.233 59.1942 100.502 59.9254C99.771 60.6566 84.0538 68.693 85.3283 76.555C86.6029 84.4169 97.2085 92.4533 97.5775 94.667C97.9464 96.8807 85.3283 97.5918 83.6848 100.879C82.0413 104.166 79.6599 119.702 93.3714 124.82C107.083 129.939 124.229 121.345 129.005 121.345C133.781 121.345 138.511 130.67 143.991 130.12C147.33 129.738 150.4 128.105 152.584 125.551C152.584 125.551 158.246 133.413 166.47 130.12C174.695 126.826 184.2 115.315 180.182 111.847C176.164 108.379 171.589 107.278 174.513 104.173C177.438 101.067 183.469 92.8424 182.563 85.7116C181.658 78.5808 173.239 78.0375 169.952 75.8439C166.665 73.6503 173.608 69.9944 173.427 63.9637C173.246 57.9331 168.852 47.8641 146.561 41.156C124.269 34.4478 113.301 37.6811 112.201 43.3495C111.857 44.9007 111.913 46.5138 112.362 48.0378C112.811 49.5618 113.64 50.9469 114.77 52.0634Z" fill="#263238"/>
<path d="M162.499 131.233C157.273 131.233 153.584 127.255 152.598 126.061C150.38 128.523 147.338 130.088 144.045 130.461C140.993 130.77 138.229 128.228 135.566 125.766C133.285 123.659 131.125 121.674 129.025 121.674C127.744 121.674 125.443 122.345 122.532 123.203C114.851 125.45 103.239 128.845 93.2775 125.128C88.5147 123.351 85.2277 120.191 83.4567 115.737C81.1089 109.753 82.2627 102.992 83.4031 100.724C84.3422 98.8526 88.3403 97.8061 91.8688 96.8871C94.3307 96.2163 97.3896 95.4449 97.2353 94.7137C97.081 93.9825 95.7193 92.5335 94.0892 90.776C90.8089 87.2273 85.8448 81.8675 84.9929 76.6217C83.8726 69.7459 94.8874 63.0108 99.0398 60.4752C99.6167 60.1196 100.167 59.8043 100.254 59.697C100.036 59.3292 99.7893 58.9793 99.5161 58.6505C98.4025 57.2016 96.5377 54.7665 98.3958 52.2442C100.65 49.1853 110.471 50.9026 113.771 51.5265C112.859 50.3759 112.217 49.0358 111.891 47.6046C111.565 46.1733 111.563 44.6872 111.886 43.2553C112.087 42.3921 112.469 41.5818 113.008 40.8784C113.548 40.175 114.231 39.5949 115.012 39.1767C120.6 35.8226 132.145 36.3995 146.668 40.8068C169.851 47.837 173.601 58.3285 173.776 63.9634C173.863 66.9955 172.239 69.4171 170.931 71.3424C170.039 72.684 169.274 73.811 169.435 74.6361C169.487 74.829 169.577 75.0093 169.7 75.1662C169.824 75.323 169.978 75.4531 170.153 75.5484C171.273 76.1952 172.458 76.7213 173.688 77.1181C177.492 78.5268 182.221 80.2844 182.905 85.6576C183.804 92.6677 178.21 100.731 174.775 104.387C174.522 104.597 174.317 104.859 174.175 105.155C174.032 105.452 173.956 105.775 173.95 106.104C174.057 107.084 175.379 107.976 177.056 109.096C178.222 109.856 179.342 110.684 180.41 111.578C180.865 112.01 181.196 112.555 181.371 113.157C181.545 113.76 181.556 114.398 181.403 115.006C180.557 120.05 173.091 127.825 166.611 130.435C165.304 130.959 163.908 131.23 162.499 131.233ZM152.605 125.196C152.656 125.196 152.707 125.21 152.753 125.234C152.798 125.259 152.837 125.294 152.866 125.336C152.927 125.41 158.481 132.944 166.363 129.791C172.669 127.268 179.927 119.728 180.739 114.892C180.947 113.644 180.692 112.698 179.974 112.081C178.925 111.211 177.825 110.405 176.68 109.666C174.862 108.445 173.427 107.479 173.279 106.198C173.272 105.77 173.359 105.346 173.534 104.955C173.709 104.565 173.968 104.217 174.292 103.937C177.418 100.583 183.113 92.5335 182.241 85.7515C181.604 80.7875 177.083 79.1105 173.454 77.7621C172.174 77.348 170.942 76.7993 169.777 76.1253C169.529 75.9806 169.312 75.7871 169.141 75.5566C168.969 75.326 168.846 75.0631 168.778 74.7837C168.563 73.6903 169.362 72.4962 170.374 70.9869C171.629 69.122 173.185 66.801 173.105 63.9835C172.937 58.5298 169.261 48.3602 146.473 41.4508C132.131 37.0972 120.788 36.48 115.361 39.7536C114.66 40.1236 114.047 40.6386 113.561 41.2644C113.075 41.8902 112.728 42.6124 112.543 43.3827C112.206 44.8838 112.254 46.4457 112.682 47.9234C113.11 49.401 113.905 50.7466 114.992 51.835C115.048 51.8855 115.085 51.9526 115.1 52.0263C115.114 52.1 115.105 52.1765 115.072 52.2442C115.038 52.3112 114.983 52.3647 114.915 52.3964C114.847 52.428 114.77 52.4358 114.697 52.4187C110.994 51.5667 100.952 49.9568 98.9593 52.6534C97.403 54.7732 98.9593 56.7857 100.073 58.2615C100.744 59.1134 101.207 59.7373 100.744 60.1867C100.319 60.5124 99.8704 60.8061 99.4021 61.0655C95.7461 63.2993 84.6441 70.0947 85.6704 76.5278C86.4888 81.5724 91.3657 86.845 94.599 90.3332C96.5108 92.3993 97.772 93.7611 97.9128 94.6197C98.1342 95.9614 95.5717 96.6322 92.0298 97.5512C88.8031 98.3897 84.7917 99.4362 83.98 101.039C82.9201 103.159 81.8065 109.794 84.0538 115.502C84.8726 117.602 86.1413 119.496 87.7708 121.052C89.4002 122.609 91.3508 123.79 93.4854 124.511C103.239 128.154 114.717 124.793 122.331 122.573C125.296 121.707 127.63 121.016 129.039 121.016C131.4 121.016 133.654 123.089 136.035 125.283C138.591 127.637 141.234 130.066 143.991 129.791C147.235 129.41 150.218 127.825 152.35 125.35C152.378 125.307 152.415 125.27 152.459 125.243C152.504 125.217 152.553 125.2 152.605 125.196Z" fill="#263238"/>
<path d="M117.205 110.699C117.205 110.699 112.637 139.208 112.456 140.121C112.275 141.033 120.506 149.257 131.641 147.795C138.164 147.011 144.159 143.82 148.452 138.846L144.984 110.518C144.984 110.518 135.479 115.086 129.629 114.905C123.779 114.724 117.205 110.699 117.205 110.699Z" fill="white"/>
<path d="M129.012 148.306C123.027 148.208 117.311 145.805 113.054 141.597C112.027 140.504 112.101 140.155 112.128 140.021C112.302 139.129 116.824 110.901 116.87 110.612C116.88 110.558 116.903 110.507 116.937 110.463C116.97 110.42 117.014 110.385 117.064 110.362C117.114 110.339 117.169 110.328 117.224 110.331C117.279 110.334 117.333 110.35 117.38 110.378C117.447 110.418 123.954 114.356 129.643 114.537C135.331 114.718 144.743 110.23 144.837 110.183C144.885 110.158 144.937 110.146 144.991 110.146C145.045 110.146 145.098 110.158 145.145 110.183C145.191 110.21 145.23 110.247 145.259 110.291C145.288 110.335 145.307 110.385 145.313 110.438L148.788 138.76C148.794 138.804 148.791 138.848 148.779 138.891C148.768 138.933 148.748 138.973 148.721 139.008C144.358 144.033 138.292 147.268 131.689 148.091C130.802 148.221 129.908 148.293 129.012 148.306ZM117.461 111.236C116.837 115.12 112.953 139.337 112.765 140.189C112.906 141.021 120.701 148.909 131.548 147.467C137.926 146.662 143.792 143.562 148.05 138.746L144.709 111.008C142.777 111.9 134.855 115.395 129.623 115.234C124.545 115.08 119.024 112.135 117.461 111.236Z" fill="#263238"/>
<path d="M115.327 125.994L134.573 122.271L117.205 110.699L115.327 125.994Z" fill="#263238"/>
<path d="M115.327 126.33C115.243 126.327 115.163 126.297 115.099 126.242C115.062 126.205 115.033 126.16 115.016 126.11C114.998 126.06 114.992 126.006 114.999 125.954L116.87 110.659C116.877 110.603 116.899 110.549 116.933 110.503C116.967 110.457 117.012 110.421 117.065 110.398C117.115 110.371 117.172 110.357 117.229 110.357C117.286 110.357 117.343 110.371 117.393 110.398L134.754 121.976C134.81 122.011 134.855 122.063 134.881 122.124C134.907 122.185 134.915 122.253 134.902 122.318C134.888 122.383 134.855 122.443 134.807 122.49C134.76 122.536 134.699 122.568 134.633 122.58L115.394 126.303L115.327 126.33ZM117.474 111.283L115.716 125.578L133.701 122.097L117.474 111.283Z" fill="#263238"/>
<path d="M107.049 85.5634C107.049 85.5634 103.829 81.4848 102.353 86.6367C100.878 91.7885 107.291 98.0406 107.291 98.0406L107.049 85.5634Z" fill="white"/>
<path d="M107.264 98.3498C107.185 98.346 107.109 98.3153 107.05 98.2626C106.781 98.001 100.482 91.8362 102.025 86.5501C102.515 84.8731 103.253 83.9272 104.219 83.7394C105.788 83.4375 107.271 85.2823 107.331 85.3628C107.378 85.4195 107.404 85.4905 107.405 85.564L107.62 98.0144C107.62 98.0806 107.601 98.1454 107.565 98.2013C107.529 98.2571 107.479 98.3016 107.419 98.3297C107.368 98.3439 107.316 98.3507 107.264 98.3498ZM104.581 84.37C104.505 84.363 104.429 84.363 104.353 84.37C103.682 84.5041 103.085 85.3158 102.676 86.7111C101.515 90.6958 105.413 95.472 106.942 97.1423L106.741 85.6646C106.332 85.2353 105.406 84.37 104.554 84.37H104.581Z" fill="#263238"/>
<path d="M153.182 85.5634C153.182 85.5634 156.402 81.4848 157.878 86.6367C159.353 91.7885 152.94 98.0406 152.94 98.0406L153.182 85.5634Z" fill="white"/>
<path d="M152.966 98.3495C152.922 98.3565 152.877 98.3565 152.832 98.3495C152.771 98.3237 152.718 98.2796 152.682 98.2233C152.647 98.167 152.629 98.101 152.631 98.0342L152.846 85.5839C152.848 85.5116 152.871 85.4415 152.913 85.3826C152.98 85.3021 154.469 83.4507 156.025 83.7593C156.998 83.9471 157.736 84.8929 158.226 86.57C159.762 91.856 153.463 98.0208 153.195 98.2824C153.13 98.3325 153.048 98.3564 152.966 98.3495ZM153.51 85.6845L153.335 97.1622C154.858 95.4918 158.762 90.7156 157.602 86.731C157.193 85.3357 156.609 84.524 155.918 84.3898C154.992 84.2154 153.932 85.1948 153.51 85.6845Z" fill="#263238"/>
<path d="M117.165 59.7912C117.165 59.7912 107.948 68.7466 106.613 71.4298C105.278 74.1131 105.815 104.689 107.284 107.654C108.753 110.619 123.444 122.083 125.846 123.016C128.247 123.948 133.728 124.887 138.001 122.747C142.274 120.607 152.558 109.66 153.631 106.856C154.704 104.052 153.363 71.9732 152.692 68.921C152.021 65.8688 135.895 54.8473 129.052 54.3173C122.21 53.7874 117.165 59.7912 117.165 59.7912Z" fill="white"/>
<path d="M131.87 124.33C129.77 124.342 127.684 123.987 125.705 123.284C123.123 122.278 108.452 110.733 106.963 107.761C105.473 104.789 104.896 74.0526 106.292 71.262C107.633 68.5787 116.354 60.0661 116.897 59.563C117.233 59.1672 122.264 53.4451 129.059 53.9818C135.694 54.505 152.249 65.332 153.001 68.8001C153.625 71.6846 155.013 104.052 153.92 106.929C152.773 109.948 142.362 120.889 138.129 123.029C136.17 123.937 134.028 124.382 131.87 124.33ZM128.18 54.6191C122.036 54.6191 117.447 59.952 117.4 59.9856C117.307 60.0728 108.21 68.9276 106.916 71.5169C105.621 74.1063 106.191 104.628 107.586 107.412C108.982 110.196 123.525 121.654 125.973 122.606C128.549 123.606 133.835 124.364 137.86 122.351C142.174 120.198 152.337 109.23 153.323 106.641C154.403 103.81 152.994 71.7584 152.37 68.9007C151.746 66.0431 135.761 55.1758 129.026 54.6593C128.751 54.6593 128.476 54.6191 128.201 54.6191H128.18Z" fill="#263238"/>
<path d="M124.41 54.3174C124.41 54.3174 138.215 66.9154 148.143 67.3984L158.078 67.8813C158.078 67.8813 136.277 64.9767 129.495 50.2053C129.495 50.2053 121.988 43.9265 124.41 54.3174Z" fill="#263238"/>
<path d="M158.079 68.2168L148.151 67.7338C138.216 67.2508 124.773 55.0889 124.202 54.5657C124.154 54.5203 124.119 54.4622 124.102 54.398C123.303 50.9634 123.478 48.951 124.638 48.2399C126.356 47.1867 129.395 49.662 129.73 49.9438C129.77 49.9761 129.802 50.0174 129.824 50.0645C136.451 64.5005 157.924 67.5058 158.139 67.5527C158.226 67.5628 158.305 67.6063 158.36 67.674C158.415 67.7416 158.442 67.828 158.434 67.9149C158.424 68.0009 158.382 68.0798 158.316 68.1359C158.25 68.1919 158.165 68.2208 158.079 68.2168ZM124.712 54.1297C125.839 55.1359 138.846 66.5934 148.191 67.0496L153.799 67.3246C147.091 65.6342 134.204 61.0927 129.254 50.3999C128.382 49.6821 126.081 48.1326 124.994 48.7967C124.377 49.1723 123.86 50.3932 124.712 54.1431V54.1297Z" fill="#263238"/>
<path d="M133.212 93.1171C133.127 93.1174 133.046 93.0857 132.984 93.0285C132.921 92.9713 132.883 92.8927 132.876 92.8085L131.81 79.3184C131.806 79.2743 131.811 79.23 131.825 79.188C131.839 79.1459 131.86 79.107 131.889 79.0734C131.918 79.0397 131.953 79.0121 131.992 78.9919C132.031 78.9718 132.074 78.9597 132.118 78.9561C132.162 78.9526 132.207 78.9578 132.249 78.9714C132.291 78.985 132.33 79.0068 132.363 79.0354C132.397 79.0641 132.425 79.0991 132.445 79.1384C132.465 79.1778 132.477 79.2207 132.48 79.2647L133.547 92.7548C133.551 92.7989 133.546 92.8433 133.532 92.8854C133.519 92.9275 133.497 92.9665 133.468 93.0002C133.439 93.0338 133.404 93.0615 133.365 93.0816C133.326 93.1016 133.283 93.1137 133.238 93.1171H133.212Z" fill="#263238"/>
<path d="M130.119 99.53C128.254 99.53 126.47 97.5176 126.396 97.4102C126.365 97.3776 126.34 97.3389 126.324 97.2966C126.308 97.2542 126.301 97.2091 126.303 97.1638C126.305 97.1186 126.316 97.0742 126.335 97.0334C126.355 96.9925 126.383 96.956 126.417 96.9261C126.451 96.8962 126.49 96.8735 126.533 96.8593C126.576 96.8452 126.622 96.8399 126.667 96.8437C126.712 96.8476 126.756 96.8606 126.796 96.8818C126.836 96.9031 126.871 96.9323 126.899 96.9675C126.899 96.9675 128.563 98.8592 130.119 98.8592C131.401 98.8592 133.339 96.3638 133.983 95.4045C134.007 95.3674 134.038 95.3354 134.074 95.3105C134.111 95.2856 134.152 95.2683 134.195 95.2595C134.238 95.2507 134.282 95.2507 134.326 95.2595C134.369 95.2683 134.41 95.2857 134.446 95.3106C134.52 95.3598 134.571 95.436 134.588 95.5227C134.606 95.6094 134.589 95.6995 134.54 95.7735C134.285 96.1558 131.984 99.53 130.119 99.53Z" fill="#263238"/>
<path d="M127.999 105.715C127.59 105.715 127.174 105.715 126.758 105.675C122.626 105.4 119.547 100.382 119.413 100.168C119.39 100.13 119.375 100.088 119.368 100.044C119.361 100 119.363 99.9557 119.374 99.9127C119.385 99.8697 119.404 99.8292 119.43 99.7936C119.456 99.7579 119.489 99.7278 119.527 99.7049C119.565 99.682 119.607 99.6668 119.651 99.6601C119.694 99.6534 119.739 99.6554 119.782 99.666C119.825 99.6766 119.865 99.6956 119.901 99.7218C119.937 99.748 119.967 99.781 119.99 99.8189C119.99 99.8726 123.022 104.749 126.805 105.004C129.557 105.098 132.308 104.786 134.969 104.079C135.058 104.054 135.153 104.065 135.234 104.11C135.314 104.156 135.374 104.231 135.398 104.32C135.423 104.409 135.412 104.504 135.367 104.585C135.321 104.665 135.246 104.725 135.157 104.749C132.819 105.358 130.415 105.683 127.999 105.715Z" fill="#263238"/>
<path d="M133.728 77.1581C133.728 77.1581 138.423 73.6832 140.268 72.4624C142.113 71.2415 148.15 73.529 148.15 73.529C148.15 73.529 143.609 70.9933 141.207 70.5908C138.806 70.1883 133.862 73.6631 133.459 75.2865C133.057 76.9099 131.869 76.4873 133.728 77.1581Z" fill="#263238"/>
<path d="M133.728 77.4663C133.69 77.4727 133.651 77.4727 133.614 77.4663C132.728 77.1511 132.467 77.0571 132.386 76.7955C132.371 76.6911 132.383 76.5847 132.421 76.4861C132.458 76.3876 132.52 76.3002 132.601 76.232C132.863 75.9511 133.048 75.6067 133.137 75.2325C133.573 73.4817 138.638 69.866 141.261 70.3087C143.696 70.7112 148.13 73.1798 148.318 73.2804C148.391 73.3228 148.446 73.3909 148.472 73.4714C148.498 73.5519 148.493 73.6393 148.459 73.7165C148.423 73.7936 148.36 73.8545 148.282 73.8868C148.203 73.9192 148.116 73.9207 148.036 73.8909C146.406 73.2737 141.871 71.8784 140.456 72.7908C138.611 73.9714 133.976 77.4194 133.929 77.4529C133.864 77.4753 133.795 77.48 133.728 77.4663ZM133.157 76.5607L133.674 76.7553C134.472 76.1583 138.417 73.2469 140.087 72.1736C141.046 71.5565 142.878 71.7376 144.568 72.1065C143.48 71.5775 142.334 71.1768 141.154 70.9125C138.933 70.5502 134.144 73.9177 133.775 75.3399C133.679 75.8018 133.467 76.2315 133.157 76.5876V76.5607Z" fill="#263238"/>
<path d="M124.108 77.7957C123.863 77.2139 123.456 76.7149 122.935 76.3581C122.414 76.0013 121.801 75.8017 121.17 75.7832C118.903 75.649 108.881 78.3256 110.618 78.3256C112.356 78.3256 119.567 78.1914 121.438 78.1914C122.346 78.2478 123.256 78.1129 124.108 77.7957Z" fill="#263238"/>
<path d="M110.618 78.6679C110.525 78.681 110.429 78.6679 110.343 78.63C110.256 78.5921 110.182 78.5309 110.128 78.4533C110.097 78.3968 110.081 78.3333 110.081 78.2688C110.081 78.2043 110.097 78.1408 110.128 78.0843C110.538 77.4135 119.319 75.3407 121.177 75.4547C121.873 75.4734 122.55 75.6938 123.124 76.0891C123.697 76.4844 124.144 77.0376 124.41 77.6818C124.438 77.759 124.436 77.8433 124.407 77.9196C124.377 77.9959 124.321 78.0591 124.249 78.0977C123.348 78.4362 122.386 78.5846 121.425 78.5338C120.472 78.5338 118.138 78.5338 115.844 78.6009C113.55 78.6679 111.47 78.6679 110.618 78.6679ZM120.976 76.1255C119.285 76.1255 114.576 77.2592 112.141 77.9837L115.851 77.93C118.145 77.8965 120.486 77.863 121.438 77.863C122.182 77.8794 122.925 77.7936 123.645 77.608C123.39 77.1658 123.025 76.797 122.586 76.5373C122.146 76.2776 121.647 76.1357 121.137 76.1255H120.976Z" fill="#263238"/>
<path d="M147.084 85.4365C145.068 85.8937 143.006 86.1188 140.939 86.1073C138.256 85.9732 135.861 85.1682 136.914 86.369C137.967 87.5697 140.121 88.643 143.455 87.9722C146.788 87.3014 148.016 86.6373 147.084 85.4365Z" fill="#263238"/>
<path d="M122.908 85.4365C120.892 85.8937 118.83 86.1188 116.763 86.1073C114.08 85.9732 111.691 85.1682 112.738 86.369C113.784 87.5697 115.944 88.643 119.285 87.9722C122.626 87.3014 123.82 86.6373 122.908 85.4365Z" fill="#263238"/>
<path d="M78.459 162.419C78.459 162.419 82.4839 140.282 84.3085 138.116C86.1331 135.949 106.056 119.655 107.15 118.561C108.243 117.468 116.105 105.581 116.474 107.043C116.843 108.506 115.562 114.905 113.18 118.373C110.799 121.842 107.519 126.054 107.519 126.054C107.519 126.054 119.795 129.16 120.466 129.891C121.136 130.623 125.363 139.719 125.584 140.853C125.973 142.811 125.409 144.911 123.759 145.059C122.257 145.186 112.429 140.121 112.429 140.121L104.594 141.195C104.594 141.195 98.9323 148.138 95.0885 149.419C93.3647 150.049 91.5923 150.538 89.7891 150.881L89.9769 164.405L78.459 162.419Z" fill="white"/>
<path d="M89.977 164.767H89.9167L78.4054 162.754C78.3161 162.738 78.2367 162.687 78.1841 162.613C78.1356 162.54 78.1165 162.452 78.1304 162.365C78.2981 161.459 82.1889 140.141 84.0537 137.907C85.2746 136.438 94.1696 129.019 100.663 123.605C103.95 120.862 106.553 118.695 106.915 118.326C107.277 117.957 108.304 116.521 109.531 114.811C114.308 108.156 115.723 106.466 116.427 106.6C116.518 106.619 116.601 106.664 116.667 106.729C116.732 106.795 116.777 106.878 116.796 106.969C117.192 108.552 115.871 115.052 113.442 118.574C111.51 121.385 108.961 124.719 108.076 125.859C110.933 126.59 120.003 128.952 120.714 129.656C121.425 130.36 125.685 139.604 125.919 140.798C126.077 141.426 126.107 142.078 126.009 142.717C125.911 143.357 125.687 143.97 125.349 144.521C125.167 144.77 124.934 144.977 124.666 145.128C124.397 145.28 124.1 145.372 123.793 145.4C122.263 145.534 113.731 141.187 112.389 140.476L104.769 141.529C104.024 142.435 98.8721 148.539 95.196 149.76C93.5405 150.346 91.8487 150.823 90.1313 151.189L90.3125 164.424C90.3117 164.474 90.3006 164.523 90.2798 164.568C90.259 164.613 90.229 164.653 90.1917 164.686C90.1305 164.735 90.0553 164.763 89.977 164.767ZM78.875 162.144L89.6081 164.002L89.427 150.881C89.4278 150.799 89.4581 150.72 89.5122 150.658C89.5664 150.597 89.6409 150.556 89.7221 150.545C91.5049 150.205 93.257 149.721 94.9612 149.096C98.6574 147.862 104.252 141.046 104.306 140.979C104.36 140.914 104.436 140.871 104.52 140.859L112.416 139.792C112.483 139.779 112.552 139.791 112.61 139.826C116.38 141.764 122.753 144.823 123.759 144.723C123.973 144.704 124.181 144.639 124.367 144.532C124.553 144.426 124.715 144.28 124.839 144.105C125.121 143.63 125.305 143.104 125.383 142.557C125.46 142.01 125.428 141.454 125.289 140.919C125.047 139.712 120.868 130.729 120.264 130.126C119.694 129.622 112.094 127.556 107.445 126.376C107.391 126.362 107.342 126.335 107.301 126.297C107.261 126.259 107.23 126.212 107.212 126.16C107.194 126.107 107.189 126.051 107.198 125.996C107.207 125.941 107.23 125.89 107.264 125.846C107.264 125.799 110.571 121.606 112.912 118.185C115.253 114.764 116.354 109.015 116.193 107.351C115.173 108.103 111.899 112.671 110.081 115.2C108.787 117.004 107.767 118.427 107.398 118.795C107.029 119.164 104.527 121.251 101.099 124.115C94.988 129.207 85.7576 136.908 84.5703 138.33C83.1414 140.04 80.0154 155.784 78.875 162.144Z" fill="#263238"/>
<path d="M125.611 141.194C125.556 141.196 125.502 141.183 125.454 141.157C125.406 141.131 125.365 141.093 125.336 141.047C123.209 137.914 119.667 132.802 119.218 132.447C118.768 132.091 113.1 131.239 108.062 130.562C107.973 130.549 107.893 130.502 107.839 130.43C107.785 130.359 107.761 130.268 107.774 130.179C107.786 130.09 107.834 130.01 107.905 129.956C107.977 129.902 108.067 129.879 108.156 129.891C110.678 130.233 118.97 131.38 119.641 131.903C120.311 132.427 125.322 139.812 125.886 140.624C125.911 140.66 125.929 140.702 125.939 140.745C125.948 140.789 125.949 140.833 125.94 140.877C125.932 140.921 125.916 140.962 125.891 141C125.867 141.037 125.835 141.069 125.799 141.094C125.747 141.144 125.682 141.179 125.611 141.194Z" fill="#263238"/>
<path d="M125.162 143.965C125.113 143.965 125.065 143.954 125.02 143.933C124.976 143.912 124.937 143.882 124.907 143.844C123.471 142.187 120.6 138.92 120.003 138.417C119.52 138.028 113.858 136.579 108.767 135.412C108.681 135.391 108.606 135.337 108.56 135.262C108.513 135.186 108.498 135.096 108.519 135.009C108.528 134.966 108.546 134.926 108.572 134.89C108.597 134.854 108.63 134.823 108.667 134.8C108.705 134.777 108.747 134.761 108.79 134.755C108.834 134.748 108.878 134.75 108.921 134.761C110.699 135.164 119.654 137.237 120.432 137.907C121.21 138.578 125.242 143.207 125.416 143.408C125.446 143.441 125.468 143.479 125.482 143.521C125.496 143.562 125.502 143.606 125.499 143.65C125.496 143.694 125.484 143.736 125.464 143.775C125.444 143.815 125.416 143.849 125.383 143.878C125.323 143.934 125.244 143.965 125.162 143.965Z" fill="#263238"/>
<path d="M125.376 228.293C125.376 228.293 111.02 225.61 110.45 225.422C109.88 225.235 99.7171 222.169 98.3754 221.592C97.0338 221.015 80.7665 218.151 80.0017 219.298C79.237 220.445 78.4723 227.146 78.2777 227.717C78.0832 228.287 76.5537 230.97 76.9361 232.506C77.1426 233.901 77.1426 235.318 76.9361 236.712C76.9361 236.712 76.7416 245.708 79.0358 245.902C81.33 246.097 83.443 237.477 83.443 237.477C83.443 237.477 86.6965 239.395 93.3912 239.778C100.086 240.16 106.6 236.907 106.6 236.907L124.417 241.146L125.376 228.293Z" fill="white"/>
<path d="M79.1296 246.237H79.029C76.547 246.029 76.5873 238.261 76.6141 236.705C76.817 235.34 76.817 233.952 76.6141 232.586C76.2787 231.245 77.2111 229.232 77.7142 228.179C77.8283 227.924 77.9222 227.723 77.9624 227.615C78.0027 227.508 78.1301 226.683 78.2509 225.851C78.7205 222.759 79.1833 219.914 79.72 219.109C80.7262 217.607 97.5234 220.86 98.5028 221.283C99.4822 221.706 105.781 223.644 108.793 224.57L110.531 225.1C110.967 225.241 119.674 226.891 125.416 227.964C125.498 227.979 125.571 228.023 125.622 228.089C125.673 228.155 125.697 228.237 125.691 228.32L124.752 241.146C124.749 241.195 124.736 241.242 124.713 241.285C124.69 241.328 124.657 241.365 124.618 241.394C124.579 241.424 124.534 241.444 124.487 241.453C124.439 241.462 124.39 241.461 124.343 241.448L106.66 237.269C105.761 237.691 99.6298 240.475 93.3912 240.119C87.9173 239.804 84.7377 238.496 83.6845 237.98C83.1478 240.052 81.3635 246.237 79.1296 246.237ZM81.3836 219.351C81.0076 219.312 80.6276 219.364 80.2767 219.505C79.7938 220.23 79.2303 223.953 78.9351 225.952C78.7674 227.086 78.6802 227.636 78.6198 227.823C78.5594 228.011 78.4722 228.172 78.3381 228.461C77.9088 229.386 76.9965 231.325 77.2849 232.425C77.5022 233.862 77.5022 235.322 77.2849 236.759C77.2111 240.327 77.7209 245.479 79.0894 245.567C80.5652 245.66 82.3496 240.623 83.1143 237.403C83.1277 237.352 83.1521 237.304 83.1857 237.264C83.2193 237.223 83.2613 237.191 83.3088 237.168C83.3558 237.145 83.4074 237.133 83.4598 237.133C83.5121 237.133 83.5637 237.145 83.6107 237.168C83.6107 237.168 86.891 239.046 93.4113 239.422C99.9317 239.797 106.385 236.618 106.452 236.584C106.524 236.561 106.601 236.561 106.673 236.584L124.115 240.703L125.02 228.575C122.605 228.125 110.893 225.932 110.343 225.744L108.619 225.214C105.359 224.214 99.3011 222.356 98.2546 221.907C96.9465 221.337 85.167 219.351 81.3836 219.351Z" fill="#263238"/>
<path d="M75.7295 158.515L94.9752 162.036L94.2574 174.064C94.2574 174.064 98.5171 176.077 99.8118 187.957C101.106 199.837 104.816 227.354 103.89 229.393C102.965 231.432 97.2224 240.327 83.8799 240.884C70.5373 241.441 63.3126 229.212 62.018 225.315C60.7233 221.417 67.579 195.926 67.948 193.706C68.3169 191.485 70.1684 176.264 71.8387 173.695C72.8682 172.108 74.1146 170.671 75.5416 169.429L75.7295 158.515Z" fill="#FFC100"/>
<path d="M82.994 241.246C69.7185 241.246 62.8695 228.843 61.7023 225.435C60.6558 222.303 64.5331 206.438 66.6127 197.932C67.1493 195.732 67.5384 194.142 67.6189 193.672C67.6994 193.203 67.7933 192.498 67.9409 191.452C68.6519 186.354 70.1412 175.741 71.5566 173.541C72.5747 171.967 73.805 170.54 75.2125 169.301L75.3937 158.521C75.3936 158.473 75.4044 158.424 75.4253 158.38C75.4462 158.336 75.4766 158.297 75.5144 158.266C75.5528 158.236 75.5972 158.215 75.6447 158.203C75.6921 158.192 75.7415 158.19 75.7894 158.199L95.0553 161.714C95.137 161.729 95.2104 161.774 95.2612 161.839C95.312 161.905 95.3366 161.987 95.3303 162.07L94.6059 173.903C95.498 174.48 98.993 177.371 100.147 187.95C100.469 190.915 100.952 194.913 101.488 199.146C103.454 215.46 104.903 228.065 104.225 229.561C104.172 229.668 99.0265 240.616 83.9197 241.24L82.994 241.246ZM76.0578 158.917L75.8766 169.449C75.8767 169.498 75.8659 169.546 75.845 169.59C75.8241 169.634 75.7937 169.673 75.7559 169.704C74.3566 170.925 73.1331 172.333 72.1201 173.89C70.7784 175.963 69.2557 186.877 68.605 191.532C68.4574 192.585 68.3434 193.377 68.2763 193.773C68.1958 194.269 67.8067 195.866 67.2634 198.073C65.3448 205.928 61.3535 222.269 62.3396 225.227C63.4665 228.581 70.4229 241.126 83.8661 240.556C96.0615 240.052 102.233 232.237 103.588 229.266C104.259 227.823 102.246 211.288 100.797 199.213C100.288 194.974 99.8047 190.975 99.4559 188.01C98.1947 176.472 94.1229 174.4 94.0893 174.379C94.0302 174.35 93.981 174.303 93.9477 174.246C93.9144 174.189 93.8983 174.124 93.9015 174.057L94.626 162.311L76.0578 158.917Z" fill="#263238"/>
<path d="M90.9498 172.931C89.8599 172.926 88.7713 172.857 87.6896 172.723C87.6017 172.713 87.5214 172.668 87.4661 172.599C87.4108 172.53 87.3851 172.442 87.3945 172.354C87.4062 172.265 87.4521 172.185 87.5223 172.13C87.5924 172.075 87.6814 172.049 87.7701 172.059C88.8253 172.187 89.8869 172.254 90.9498 172.26C91.0388 172.26 91.1241 172.295 91.187 172.358C91.2499 172.421 91.2852 172.506 91.2852 172.595C91.2852 172.684 91.2499 172.77 91.187 172.832C91.1241 172.895 91.0388 172.931 90.9498 172.931Z" fill="#263238"/>
<path d="M83.2021 171.952H83.1283C80.5208 171.373 77.9494 170.643 75.4273 169.765C75.3461 169.733 75.2805 169.67 75.2446 169.591C75.2086 169.511 75.2051 169.421 75.2348 169.339C75.2645 169.256 75.3251 169.189 75.4036 169.151C75.4821 169.113 75.5725 169.107 75.6554 169.134C78.1486 170.003 80.691 170.724 83.2691 171.294C83.3124 171.304 83.3534 171.322 83.3896 171.347C83.4259 171.372 83.4568 171.405 83.4805 171.442C83.5042 171.48 83.5202 171.521 83.5277 171.565C83.5352 171.609 83.5339 171.653 83.524 171.697C83.5073 171.769 83.4663 171.834 83.4078 171.881C83.3492 171.927 83.2767 171.952 83.2021 171.952Z" fill="#263238"/>
<path d="M181.644 164.559L179.733 213.938C179.733 213.938 177.626 214.133 176.861 215.085C176.352 215.746 175.903 216.451 175.52 217.192C175.52 217.192 156.194 217.956 147.003 220.64C141.729 222.14 136.604 224.125 131.695 226.57L123.27 226.388L121.546 248.586L132.842 248.968C132.842 248.968 138.39 252.222 163.653 254.523C188.916 256.823 200.595 257.394 203.272 254.328C205.948 251.262 207.102 246.479 207.484 243.997C207.867 241.515 212.462 226.194 212.462 203.99C212.462 181.786 191.599 149.654 187.004 142.362C182.409 135.07 177.613 135.654 174.373 136.432" fill="#FFC100"/>
<path d="M192.558 256.756C186.152 256.756 176.774 256.045 163.626 254.851C139.839 252.684 133.52 249.705 132.768 249.296L121.559 248.914C121.513 248.914 121.468 248.905 121.426 248.886C121.384 248.868 121.346 248.84 121.316 248.806C121.285 248.772 121.262 248.731 121.249 248.687C121.235 248.643 121.231 248.597 121.237 248.552L122.934 226.388C122.939 226.302 122.978 226.221 123.042 226.164C123.106 226.106 123.19 226.076 123.276 226.079L131.614 226.267C136.524 223.838 141.643 221.858 146.909 220.351C155.536 217.835 173.259 216.996 175.311 216.896C175.681 216.188 176.112 215.515 176.599 214.883C177.27 214.045 178.773 213.743 179.41 213.649L181.309 164.552C181.308 164.507 181.318 164.463 181.335 164.422C181.353 164.381 181.379 164.345 181.412 164.314C181.445 164.284 181.484 164.261 181.526 164.246C181.568 164.232 181.613 164.226 181.657 164.23C181.701 164.232 181.745 164.242 181.785 164.261C181.825 164.279 181.861 164.305 181.891 164.338C181.921 164.37 181.944 164.408 181.959 164.449C181.974 164.491 181.981 164.535 181.979 164.579L180.068 213.958C180.065 214.039 180.033 214.116 179.977 214.175C179.922 214.234 179.846 214.272 179.766 214.28C179.216 214.327 177.679 214.608 177.123 215.299C176.631 215.943 176.195 216.627 175.821 217.345C175.795 217.4 175.755 217.447 175.704 217.48C175.653 217.513 175.594 217.532 175.533 217.533C175.345 217.533 156.14 218.325 147.097 220.968C141.846 222.47 136.743 224.446 131.849 226.871C131.797 226.897 131.74 226.911 131.682 226.911L123.578 226.73L121.908 248.263L132.849 248.632C132.905 248.637 132.96 248.653 133.01 248.679C133.063 248.679 138.873 251.933 163.686 254.187C188.842 256.474 200.487 257.004 203.023 254.106C205.914 250.806 206.914 245.493 207.155 243.943C207.216 243.521 207.39 242.796 207.645 241.689C210.616 229.342 212.12 216.688 212.126 203.989C212.126 189.808 203.747 169.402 187.232 143.341L186.722 142.542C181.953 134.989 176.881 136.183 174.453 136.753C174.366 136.774 174.274 136.759 174.198 136.713C174.121 136.666 174.066 136.592 174.044 136.505C174.034 136.462 174.032 136.417 174.04 136.374C174.047 136.33 174.063 136.288 174.087 136.251C174.111 136.213 174.142 136.181 174.178 136.156C174.214 136.13 174.255 136.112 174.299 136.103C178.236 135.177 182.865 135.177 187.292 142.18L187.795 142.985C204.385 169.147 212.797 189.681 212.797 203.989C212.788 216.74 211.28 229.445 208.302 241.844C208.054 242.89 207.88 243.648 207.819 244.044C207.571 245.64 206.538 251.108 203.526 254.549C202.178 256.085 198.763 256.756 192.558 256.756Z" fill="#263238"/>
<path d="M179.732 214.273C179.674 214.274 179.616 214.259 179.565 214.229C179.514 214.199 179.472 214.157 179.444 214.105C179.405 214.039 179.39 213.962 179.401 213.886C179.412 213.811 179.448 213.741 179.504 213.689L190.606 203.358C190.637 203.327 190.673 203.302 190.714 203.285C190.754 203.268 190.797 203.26 190.841 203.26C190.885 203.26 190.928 203.268 190.968 203.285C191.009 203.302 191.045 203.327 191.076 203.358C191.107 203.39 191.132 203.427 191.149 203.468C191.166 203.508 191.175 203.552 191.175 203.597C191.175 203.641 191.166 203.685 191.149 203.726C191.132 203.766 191.107 203.804 191.076 203.835L181.014 213.226L191.405 210.207C191.494 210.183 191.589 210.194 191.669 210.239C191.75 210.285 191.809 210.36 191.834 210.449C191.859 210.538 191.847 210.633 191.802 210.714C191.757 210.794 191.681 210.853 191.592 210.878L179.846 214.286L179.732 214.273Z" fill="#263238"/>
<path d="M195.154 209.798C195.065 209.81 194.975 209.786 194.904 209.731C194.833 209.676 194.787 209.595 194.775 209.506C194.764 209.418 194.788 209.328 194.843 209.257C194.897 209.185 194.978 209.139 195.067 209.127L198.777 208.054C198.819 208.041 198.863 208.036 198.908 208.041C198.952 208.045 198.994 208.058 199.033 208.08C199.072 208.101 199.106 208.13 199.134 208.165C199.161 208.199 199.181 208.239 199.193 208.282C199.218 208.368 199.207 208.459 199.165 208.537C199.122 208.615 199.05 208.673 198.965 208.698L195.248 209.771C195.219 209.788 195.187 209.797 195.154 209.798Z" fill="#263238"/>
<path d="M192.747 220.398H192.626C187.756 218.52 175.621 217.554 175.493 217.547C175.449 217.543 175.406 217.531 175.367 217.511C175.328 217.491 175.293 217.463 175.264 217.43C175.235 217.396 175.214 217.357 175.2 217.315C175.186 217.273 175.181 217.229 175.185 217.185C175.188 217.141 175.2 217.098 175.22 217.058C175.241 217.019 175.268 216.984 175.302 216.955C175.336 216.927 175.374 216.905 175.417 216.891C175.459 216.878 175.503 216.873 175.547 216.876C176.05 216.916 187.903 217.862 192.867 219.767C192.911 219.775 192.954 219.792 192.991 219.816C193.029 219.84 193.061 219.871 193.087 219.908C193.112 219.945 193.13 219.986 193.14 220.03C193.15 220.074 193.15 220.119 193.142 220.163C193.135 220.207 193.118 220.249 193.094 220.287C193.07 220.324 193.038 220.357 193.002 220.383C192.965 220.408 192.923 220.426 192.88 220.436C192.836 220.445 192.791 220.446 192.747 220.438V220.398Z" fill="#263238"/>
<path d="M196.195 230.353C196.143 230.353 196.092 230.34 196.045 230.317C195.999 230.294 195.958 230.26 195.926 230.219C195.423 229.548 194.873 228.938 194.29 228.327C194.236 228.262 194.209 228.179 194.213 228.094C194.218 228.01 194.255 227.93 194.316 227.872C194.377 227.813 194.458 227.78 194.543 227.778C194.628 227.777 194.71 227.808 194.773 227.864C195.366 228.484 195.928 229.133 196.456 229.81C196.511 229.879 196.536 229.968 196.526 230.056C196.516 230.144 196.472 230.224 196.403 230.279C196.343 230.325 196.27 230.351 196.195 230.353Z" fill="#263238"/>
<path d="M192.189 226.267C192.112 226.265 192.037 226.239 191.975 226.193C188.569 223.435 184.639 221.395 180.423 220.196C180.379 220.186 180.338 220.167 180.301 220.141C180.264 220.115 180.233 220.082 180.209 220.043C180.185 220.005 180.169 219.962 180.161 219.918C180.154 219.873 180.155 219.828 180.165 219.784C180.175 219.74 180.194 219.698 180.22 219.661C180.246 219.624 180.28 219.593 180.318 219.569C180.356 219.545 180.399 219.529 180.443 219.521C180.488 219.514 180.534 219.515 180.578 219.525C184.894 220.744 188.918 222.828 192.404 225.65C192.459 225.694 192.498 225.753 192.517 225.821C192.536 225.888 192.533 225.959 192.51 226.025C192.486 226.091 192.443 226.148 192.385 226.187C192.328 226.227 192.259 226.248 192.189 226.247V226.267Z" fill="#263238"/>
<path d="M131.695 247.58C131.606 247.58 131.52 247.545 131.458 247.482C131.395 247.419 131.359 247.333 131.359 247.244L131.198 228.683C131.197 228.639 131.205 228.595 131.221 228.554C131.237 228.513 131.261 228.476 131.292 228.444C131.322 228.412 131.359 228.387 131.399 228.369C131.44 228.351 131.483 228.342 131.527 228.341C131.616 228.341 131.701 228.376 131.764 228.439C131.827 228.502 131.862 228.587 131.862 228.676L132.057 247.238C132.057 247.327 132.022 247.413 131.959 247.477C131.896 247.541 131.811 247.578 131.722 247.58H131.695Z" fill="#263238"/>
<path d="M130.354 242.984H122.304C122.215 242.984 122.13 242.949 122.067 242.886C122.004 242.823 121.969 242.738 121.969 242.649C121.969 242.56 122.004 242.475 122.067 242.412C122.13 242.349 122.215 242.313 122.304 242.313H130.354C130.443 242.313 130.528 242.349 130.591 242.412C130.654 242.475 130.689 242.56 130.689 242.649C130.688 242.737 130.652 242.822 130.589 242.884C130.527 242.947 130.442 242.983 130.354 242.984Z" fill="#263238"/>
<path d="M124.229 232.07C124.143 232.07 124.061 232.038 123.998 231.979C123.936 231.921 123.898 231.84 123.893 231.755C123.89 231.711 123.897 231.667 123.911 231.626C123.925 231.585 123.948 231.547 123.977 231.514C124.007 231.482 124.042 231.455 124.082 231.437C124.122 231.418 124.165 231.408 124.208 231.406L127.462 231.212C127.506 231.209 127.55 231.215 127.592 231.229C127.634 231.244 127.672 231.266 127.705 231.295C127.738 231.325 127.765 231.36 127.784 231.4C127.804 231.44 127.815 231.483 127.817 231.527C127.821 231.615 127.79 231.702 127.732 231.768C127.673 231.835 127.591 231.876 127.502 231.882L124.249 232.07H124.229Z" fill="#263238"/>
</svg>
