<svg width="35" height="35" viewBox="0 0 35 35" fill="none" xmlns="http://www.w3.org/2000/svg">
<circle cx="17.5" cy="17.5" r="17.5" fill="#FFCA1D"/>
<path d="M17.1302 26.7819L17.1234 26.7783L17.0998 26.7655C17.0797 26.7546 17.0509 26.7388 17.0141 26.7183C16.9405 26.6772 16.8346 26.6171 16.701 26.5385C16.4339 26.3813 16.0554 26.1499 15.6027 25.8489C14.6987 25.248 13.4909 24.3647 12.2798 23.2357C9.88314 21.0016 7.34375 17.6824 7.34375 13.5938C7.34375 10.5437 9.91 8.125 13.0078 8.125C14.8296 8.125 16.4608 8.95738 17.5 10.2621C18.5393 8.95738 20.1704 8.125 21.9922 8.125C25.09 8.125 27.6562 10.5437 27.6562 13.5938C27.6562 17.6824 25.1169 21.0016 22.7202 23.2357C21.5091 24.3647 20.3013 25.248 19.3973 25.8489C18.9446 26.1499 18.5661 26.3813 18.299 26.5385C18.1654 26.6171 18.0595 26.6772 17.9859 26.7183C17.9491 26.7388 17.9203 26.7546 17.9002 26.7655L17.8766 26.7783L17.8698 26.7819L17.8669 26.7835C17.6378 26.9051 17.3622 26.9051 17.1331 26.7835L17.1302 26.7819Z" fill="black"/>
<path d="M16 19.3416C16.0179 17.493 17.522 16 19.3748 16C20.4351 16 21.3811 16.4889 21.9998 17.2535C22.6186 16.4889 23.5646 16 24.6248 16C26.4888 16 27.9998 17.511 27.9998 19.375C27.9998 19.4215 27.9989 19.4679 27.997 19.5141C27.9333 21.6475 26.3783 23.2732 25.0415 24.298C24.3522 24.8264 23.6703 25.234 23.1627 25.5091C22.9081 25.6471 22.6951 25.7529 22.5441 25.825C22.4686 25.861 22.4084 25.8887 22.3661 25.9078C22.345 25.9173 22.3283 25.9247 22.3164 25.93L22.3021 25.9362L22.2977 25.9381L22.2963 25.9387C22.11 26.02 21.89 26.02 21.704 25.939L21.702 25.9381L21.6975 25.9362L21.683 25.9298C21.6709 25.9245 21.6539 25.9169 21.6323 25.9072C21.5892 25.8878 21.5279 25.8596 21.451 25.8228C21.2972 25.7494 21.0804 25.6415 20.8214 25.5008C20.3052 25.2203 19.6126 24.8047 18.9157 24.2659C17.5637 23.2205 15.9991 21.5583 15.999 19.38C15.999 19.3672 15.9994 19.3544 16 19.3416Z" fill="white"/>
</svg>
