<svg width="51" height="26" viewBox="0 0 51 26" fill="none" xmlns="http://www.w3.org/2000/svg">
<path d="M25.5 0L27.6329 5.87336L34.535 5.87336L28.9511 9.50329L31.084 15.3766L25.5 11.7467L19.916 15.3766L22.0489 9.50329L16.465 5.87336L23.3671 5.87336L25.5 0Z" fill="#FFCA1D"/>
<path d="M41.5 9L43.6329 14.8734L50.535 14.8734L44.9511 18.5033L47.084 24.3766L41.5 20.7467L35.916 24.3766L38.0489 18.5033L32.465 14.8734L39.3671 14.8734L41.5 9Z" fill="#FFCA1D"/>
<path d="M9.5 9L11.6329 14.8734L18.535 14.8734L12.9511 18.5033L15.084 24.3766L9.5 20.7467L3.91604 24.3766L6.04892 18.5033L0.464963 14.8734L7.36712 14.8734L9.5 9Z" fill="#FFCA1D"/>
</svg>
